# xmcd CD database file
#
# Track frame offsets:
#	150
#	23970
#	43120
#	66862
#
# Disc length: 1205 seconds
#
# Revision: 2
# Processed by: cddbd v1.5.1PL2 Copyright (c) Steve Scherf et al.
# Submitted via: CDex 1.60beta1-cs1
#
DISCID=3104b304
DTITLE=愛内里菜 - Dream×Dream
DYEAR=2004
DGENRE=JPop
TTITLE0=Dream×Dream
TTITLE1=Sweet Peach Tree
TTITLE2=Melody Flag
TTITLE3=Dream×Dream -instrumental-
EXTD=YEAR: 2004
EXTT0=
EXTT1=
EXTT2=
EXTT3=
PLAYORDER=
